<?xml version="1.0" encoding="UTF-8"?>
<svg id="Layer_1" xmlns="http://www.w3.org/2000/svg" version="1.1" viewBox="0 0 78.2 76.7">
  <!-- Generator: Adobe Illustrator 29.3.1, SVG Export Plug-In . SVG Version: 2.1.0 Build 151)  -->
  <defs>
    <style>
      .st0 {
        font-family: AktivGrotesk-Light, 'Aktiv Grotesk';
        font-size: 11px;
        font-weight: 300;
      }

      .st0, .st1 {
        fill: #fff;
      }

      .st2 {
        fill: #204854;
      }

      .st3 {
        fill: #d97a4b;
      }
    </style>
  </defs>
  <circle class="st2" cx="39.1" cy="36.1" r="36.1"/>
  <rect class="st3" x="0" y="60.5" width="78.2" height="16.2" rx="7.5" ry="7.5"/>
  <text class="st0" transform="translate(18.3 72.1)"><tspan x="0" y="0">Account</tspan></text>
  <g>
    <path class="st3" d="M39.1,12.9c-10.2,0-18.5,8.3-18.5,18.5s2,9.5,5.2,12.8c1.6-3.4,4.4-6.1,8-7.5-2.2-1.6-3.6-4.2-3.6-7.2,0-5,4-9,9-9s9,4,9,9-1.4,5.6-3.6,7.2c3.5,1.4,6.4,4.1,8,7.5,3.2-3.3,5.2-7.8,5.2-12.8,0-10.2-8.3-18.5-18.5-18.5Z"/>
    <path class="st1" d="M45.2,29.5c0-3.4-2.8-6.2-6.2-6.2s-6.2,2.8-6.2,6.2,2.8,6.2,6.2,6.2,6.2-2.8,6.2-6.2Z"/>
    <path class="st1" d="M39.1,38.5c-5.1,0-9.4,3.2-11.1,7.7,3.1,2.3,6.9,3.7,11.1,3.7s8-1.4,11.1-3.7c-1.7-4.5-6-7.7-11.1-7.7Z"/>
  </g>
</svg>