<?xml version="1.0" encoding="UTF-8"?>
<svg id="Layer_1" xmlns="http://www.w3.org/2000/svg" version="1.1" viewBox="0 0 78.2 76.7">
  <!-- Generator: Adobe Illustrator 29.3.1, SVG Export Plug-In . SVG Version: 2.1.0 Build 151)  -->
  <defs>
    <style>
      .st0 {
        font-family: AktivGrotesk-Light, 'Aktiv Grotesk';
        font-size: 11px;
        font-weight: 300;
      }

      .st0, .st1 {
        fill: #fff;
      }

      .st2 {
        fill: #204854;
      }

      .st3 {
        fill: #d97a4b;
      }
    </style>
  </defs>
  <circle class="st2" cx="39.1" cy="36.1" r="36.1"/>
  <rect class="st3" x="0" y="60.5" width="78.2" height="16.2" rx="7.5" ry="7.5"/>
  <text class="st0" transform="translate(24.1 72.1)"><tspan x="0" y="0">Wallet</tspan></text>
  <g id="wallet">
    <path id="Vector_65" class="st3" d="M35.7,18.5c0-2,1.6-3.6,3.6-3.6h1.2l-.4-1c-.2-.6-.8-1-1.4-1s-.3,0-.5,0l-12.6,4.6c-.7.3-1.1,1.1-.9,1.9l.7,1.8h10.2v-2.7Z"/>
    <path id="Vector_66" class="st3" d="M39.3,17c-.8,0-1.4.6-1.4,1.4v2.7h12.6v-2.7c0-.8-.6-1.4-1.4-1.4h-9.7Z"/>
    <path id="Vector_67" class="st1" d="M54.3,42h-5c-3,0-5.4-2.4-5.4-5.4s2.4-5.4,5.4-5.4h5v-4.9c0-1.6-1.3-2.9-2.9-2.9h-27.9c-1.6,0-2.9,1.3-2.9,2.9v20.6c0,1.6,1.3,2.9,2.9,2.9h27.9c1.6,0,2.9-1.3,2.9-2.9v-4.9Z"/>
    <path id="Vector_68" class="st1" d="M56.5,33.4h-7.2c-1.8,0-3.2,1.5-3.2,3.2s1.5,3.2,3.2,3.2h7.2c.6,0,1.1-.5,1.1-1.1v-4.3c0-.6-.5-1.1-1.1-1.1ZM49.3,37.7c-.6,0-1.1-.5-1.1-1.1s.5-1.1,1.1-1.1,1.1.5,1.1,1.1-.5,1.1-1.1,1.1Z"/>
  </g>
</svg>