<?xml version="1.0" encoding="UTF-8"?>
<svg id="Layer_1" xmlns="http://www.w3.org/2000/svg" version="1.1" viewBox="0 0 78.2 76.7">
  <!-- Generator: Adobe Illustrator 29.3.1, SVG Export Plug-In . SVG Version: 2.1.0 Build 151)  -->
  <defs>
    <style>
      .st0 {
        font-family: AktivGrotesk-Light, 'Aktiv Grotesk';
        font-size: 11px;
        font-weight: 300;
      }

      .st0, .st1 {
        fill: #fff;
      }

      .st2 {
        fill: #204854;
      }

      .st3 {
        fill: #d97a4b;
      }
    </style>
  </defs>
  <g id="seed">
    <path id="Vector_211" class="st1" d="M56.6,47.7h-2.4c0-2.1-1.6-4-4.8-4h-3.2c-.3-2.9-3-5.1-6.1-4.4-1.2-1.3-2.9-2.1-4.8-2.1-3.6,0-6.5,3-6.9,6.5h-1c-3,0-4.4,2.1-4.1,4h-1.7c-1.3,0-1.3,2,0,2h35c1.3,0,1.3-2,0-2Z"/>
    <path id="Vector_212" class="st3" d="M29.5,24c-.4-.4-.4-1,0-1.4.4-.4,1-.4,1.4,0l5.2,5.4c0-2.8-.8-7.4-3.4-10.1-2.5-2.6-6.8-3-8.7-3-.5,0-1,.4-1,.9,0,1.9,0,6.2,2.8,8.9,2.6,2.6,5.5,3.4,7.9,3.6l-4.2-4.3Z"/>
    <path id="Vector_213" class="st3" d="M37.8,35.7c.5-4.9,3.1-9.1,7.4-12.3,1.1-.4,1.9,1,1,1.7-2,1.6-3.4,3.3-4.6,5.1,3.1-.3,6.7-1.1,9.9-4.3,3.7-3.7,3.9-9.7,3.9-12,0-.5-.4-.9-.9-1-2.2,0-8,.1-12.1,4.3-2.7,2.8-3.8,7.2-4.1,10.8-1.4,2.2-2.5,4.7-3,7.4.9,0,1.6,0,2.7.4Z"/>
  </g>
</svg>
