<?xml version="1.0" encoding="UTF-8"?>
<svg id="Layer_1" data-name="Layer 1" xmlns="http://www.w3.org/2000/svg" viewBox="0 0 1840.67 373.57">
  <defs>
    <style>
      .cls-1 {
        fill: #d97a4b;
      }

      .cls-2 {
        fill: #214854;
      }

      .cls-3 {
        fill: #1e1e1e;
      }
    </style>
  </defs>
  <g>
    <path class="cls-3" d="M436.9,294.43c4.05,20.27,12.79,34.9,26.22,43.89,13.42,9,33.44,13.49,60.04,13.49,13.68,0,25.01-1.52,34.01-4.56,8.99-3.04,16.15-7.09,21.47-12.16,5.32-5.06,9.12-11.02,11.4-17.86,2.28-6.84,3.42-14.06,3.42-21.66,0-6.33-.7-12.35-2.09-18.05-1.4-5.7-4.06-10.89-7.98-15.58-3.93-4.68-9.57-8.8-16.91-12.35-7.35-3.54-16.98-6.33-28.88-8.36l-33.82-5.7c-13.18-2.28-24.89-5.19-35.15-8.74-10.26-3.54-18.94-8.17-26.03-13.87-7.1-5.7-12.48-12.85-16.15-21.47-3.68-8.61-5.51-19.13-5.51-31.54s2.59-23.18,7.79-32.3c5.19-9.12,12.16-16.66,20.9-22.61,8.74-5.95,19-10.38,30.78-13.3,11.78-2.91,24.25-4.37,37.43-4.37,16.97,0,31.16,1.84,42.56,5.51,11.4,3.68,20.77,8.55,28.12,14.63,7.34,6.08,13.04,12.98,17.1,20.71,4.05,7.73,7.22,15.52,9.5,23.37l-21.28,6.08c-2.54-7.85-5.51-14.88-8.93-21.09-3.42-6.2-7.98-11.46-13.68-15.77-5.7-4.3-12.86-7.6-21.47-9.88-8.62-2.28-19.13-3.42-31.54-3.42-13.94,0-25.59,1.33-34.96,3.99-9.38,2.66-16.98,6.34-22.8,11.02-5.83,4.69-10.01,10.26-12.54,16.72-2.54,6.46-3.8,13.37-3.8,20.71s.88,14.19,2.66,19.76c1.77,5.58,4.81,10.39,9.12,14.44,4.3,4.06,10.07,7.48,17.29,10.26,7.22,2.79,16.27,5.2,27.17,7.22l38.38,6.84c13.68,2.54,25.52,5.83,35.53,9.88,10,4.05,18.3,9.18,24.89,15.39,6.58,6.21,11.46,13.62,14.63,22.23,3.16,8.62,4.75,18.75,4.75,30.4,0,10.39-2.03,20.21-6.08,29.45-4.06,9.25-10.07,17.29-18.05,24.13s-17.93,12.29-29.83,16.34c-11.91,4.05-25.84,6.08-41.8,6.08-14.7,0-28.31-1.4-40.85-4.18-12.54-2.79-23.56-7.28-33.06-13.49-9.5-6.21-17.29-14.25-23.37-24.13s-9.88-21.91-11.4-36.1h22.8Z"/>
    <path class="cls-3" d="M799.48,316.19c-3.04,16.98-11.15,30.78-24.32,41.42-13.18,10.64-31.92,15.96-56.24,15.96-28.12,0-49.97-9.05-65.55-27.17-15.58-18.11-23.37-43-23.37-74.67,0-17.22,2.21-32.42,6.65-45.6,4.43-13.17,10.64-24.25,18.62-33.25,7.98-8.99,17.35-15.77,28.12-20.33,10.76-4.56,22.61-6.84,35.53-6.84,15.2,0,28.12,2.47,38.76,7.41,10.64,4.94,19.31,11.66,26.03,20.14,6.71,8.49,11.59,18.56,14.63,30.21,3.04,11.66,4.56,24.2,4.56,37.62v14.06h-150.48c0,11.15,1.39,21.6,4.18,31.35,2.78,9.76,6.96,18.24,12.54,25.46,5.57,7.22,12.54,12.92,20.9,17.1,8.36,4.18,17.98,6.27,28.88,6.27,9.88,0,18.24-.95,25.08-2.85,6.84-1.9,12.54-4.62,17.1-8.17,4.56-3.54,8.17-7.66,10.83-12.35,2.66-4.68,4.75-9.94,6.27-15.77h21.28Zm-19.38-60.04c0-10.64-1.14-20.39-3.42-29.26-2.28-8.87-5.83-16.53-10.64-22.99-4.82-6.46-11.15-11.46-19-15.01-7.86-3.54-17.23-5.32-28.12-5.32-19,0-34.2,5.96-45.6,17.86-11.4,11.91-18.24,30.15-20.52,54.72h127.3Z"/>
    <path class="cls-3" d="M983.78,316.19c-3.04,16.98-11.15,30.78-24.32,41.42-13.18,10.64-31.92,15.96-56.24,15.96-28.12,0-49.97-9.05-65.55-27.17-15.58-18.11-23.37-43-23.37-74.67,0-17.22,2.21-32.42,6.65-45.6,4.43-13.17,10.64-24.25,18.62-33.25,7.98-8.99,17.35-15.77,28.12-20.33,10.76-4.56,22.61-6.84,35.53-6.84,15.2,0,28.12,2.47,38.76,7.41,10.64,4.94,19.31,11.66,26.03,20.14,6.71,8.49,11.59,18.56,14.63,30.21,3.04,11.66,4.56,24.2,4.56,37.62v14.06h-150.48c0,11.15,1.39,21.6,4.18,31.35,2.78,9.76,6.96,18.24,12.54,25.46,5.57,7.22,12.54,12.92,20.9,17.1,8.36,4.18,17.98,6.27,28.88,6.27,9.88,0,18.24-.95,25.08-2.85,6.84-1.9,12.54-4.62,17.1-8.17,4.56-3.54,8.17-7.66,10.83-12.35,2.66-4.68,4.75-9.94,6.27-15.77h21.28Zm-19.38-60.04c0-10.64-1.14-20.39-3.42-29.26-2.28-8.87-5.83-16.53-10.64-22.99-4.82-6.46-11.15-11.46-19-15.01-7.86-3.54-17.23-5.32-28.12-5.32-19,0-34.2,5.96-45.6,17.86-11.4,11.91-18.24,30.15-20.52,54.72h127.3Z"/>
    <path class="cls-3" d="M1150.22,338.23c-8.36,10.9-17.93,19.51-28.69,25.84-10.77,6.33-23.88,9.5-39.33,9.5-14.44,0-26.92-2.79-37.43-8.36-10.52-5.57-19.19-13.04-26.03-22.42-6.84-9.37-11.91-20.2-15.2-32.49-3.3-12.28-4.94-25.14-4.94-38.57,0-33.44,7.79-59.47,23.37-78.09,15.58-18.62,37.05-27.93,64.41-27.93,10.64,0,21.53,2.28,32.68,6.84,11.14,4.56,21.53,13.18,31.16,25.84V85.06h22.04V373.17h-22.04v-34.94Zm1.14-76.38c0-8.87-.51-16.53-1.52-22.99-1.02-6.46-2.54-12.16-4.56-17.1-2.03-4.94-4.75-9.31-8.17-13.11-3.42-3.8-7.41-7.47-11.97-11.02-6.08-4.56-12.1-7.85-18.05-9.88-5.96-2.02-12.73-3.04-20.33-3.04-9.38,0-17.99,1.59-25.84,4.75-7.85,3.17-14.63,8.17-20.33,15.01-5.7,6.84-10.2,15.71-13.49,26.6-3.3,10.9-4.94,24.2-4.94,39.9s1.83,29.33,5.51,40.09c3.67,10.77,8.42,19.38,14.25,25.84,5.82,6.46,12.35,11.02,19.57,13.68,7.22,2.66,14.5,3.99,21.85,3.99,7.85,0,14.88-.88,21.09-2.66,6.2-1.77,12.6-5.06,19.19-9.88,8.86-6.58,15.7-14.94,20.52-25.08,4.81-10.13,7.22-22.8,7.22-38v-17.1Z"/>
    <path class="cls-3" d="M1416.15,278.47c-1.78,13.43-5.26,25.84-10.45,37.24-5.2,11.4-12.23,21.28-21.09,29.64-8.87,8.36-19.64,14.95-32.3,19.76-12.67,4.81-27.36,7.22-44.08,7.22-17.74,0-33.89-3.04-48.45-9.12-14.57-6.08-27.11-15.13-37.62-27.17-10.52-12.03-18.69-26.85-24.51-44.46-5.83-17.6-8.74-37.93-8.74-60.99s3.17-43.89,9.5-61.75c6.33-17.86,14.88-32.8,25.65-44.84,10.76-12.03,23.3-21.15,37.62-27.36,14.31-6.21,29.57-9.31,45.79-9.31s30.65,2.16,42.56,6.46c11.9,4.31,21.97,10.33,30.21,18.05,8.23,7.73,14.88,16.91,19.95,27.55,5.06,10.64,9.12,22.17,12.16,34.58l-22.04,4.94c-2.79-11.14-6.27-21.15-10.45-30.02-4.18-8.87-9.5-16.34-15.96-22.42-6.46-6.08-14.25-10.77-23.37-14.06-9.12-3.29-20.14-4.94-33.06-4.94-14.95,0-28.25,3.04-39.9,9.12-11.66,6.08-21.54,14.57-29.64,25.46-8.11,10.9-14.31,23.82-18.62,38.76-4.31,14.95-6.46,31.29-6.46,49.02s2.09,34.39,6.27,49.21c4.18,14.82,10.26,27.68,18.24,38.57,7.98,10.9,17.92,19.32,29.83,25.27,11.9,5.96,25.58,8.93,41.04,8.93s27.04-1.83,37.05-5.51c10-3.67,18.24-8.8,24.7-15.39,6.46-6.58,11.52-14.38,15.2-23.37,3.67-8.99,6.4-18.68,8.17-29.07h22.8Z"/>
    <path class="cls-3" d="M1436.29,85.17h22.04V373.17h-22.04V85.17Z"/>
    <path class="cls-3" d="M1483.41,166.17h22.04v128.88c0,20.52,3.23,35.28,9.69,44.27,6.46,9,17.54,13.49,33.25,13.49,7.85,0,15.71-1.52,23.56-4.56,7.85-3.04,15.32-7.6,22.42-13.68,7.34-6.58,12.92-13.36,16.72-20.33,3.8-6.96,5.7-16.53,5.7-28.69v-119.38h22.04v207h-22.04v-38.6c-20.52,25.33-44.21,38-71.06,38-22.3,0-38.26-6.08-47.88-18.24-9.63-12.16-14.44-29.89-14.44-53.2V166.17Z"/>
    <path class="cls-3" d="M1666.25,85.17h22.04v115.88c8.86-11.14,18.62-19.82,29.26-26.03,10.64-6.21,23.56-9.31,38.76-9.31,14.18,0,26.6,2.6,37.24,7.79,10.64,5.2,19.44,12.35,26.41,21.47,6.96,9.12,12.16,19.89,15.58,32.3,3.42,12.42,5.13,25.84,5.13,40.28,0,16.72-2.09,31.61-6.27,44.65-4.18,13.05-10.07,24.13-17.67,33.25s-16.79,16.09-27.55,20.9c-10.77,4.81-22.87,7.22-36.29,7.22-11.91,0-23.37-2.41-34.39-7.22-11.02-4.81-21.09-13.3-30.21-25.46v32.28h-22.04V85.17Zm21.28,192.26c0,8.62,.44,16.15,1.33,22.61,.88,6.46,2.4,12.23,4.56,17.29,2.15,5.07,4.87,9.57,8.17,13.49,3.29,3.93,7.34,7.54,12.16,10.83,5.82,4.56,11.78,7.86,17.86,9.88,6.08,2.03,13.04,3.04,20.9,3.04,9.37,0,17.98-1.58,25.84-4.75,7.85-3.17,14.63-8.17,20.33-15.01,5.7-6.84,10.19-15.77,13.49-26.79,3.29-11.02,4.94-24.38,4.94-40.09s-1.84-29.26-5.51-39.9c-3.68-10.64-8.43-19.19-14.25-25.65-5.83-6.46-12.42-11.02-19.76-13.68-7.35-2.66-14.57-3.99-21.66-3.99-7.85,0-14.95,.89-21.28,2.66-6.34,1.78-12.67,5.07-19,9.88-8.87,6.59-15.77,14.89-20.71,24.89-4.94,10.01-7.41,22.74-7.41,38.19v17.1Z"/>
  </g>
  <path class="cls-2" d="M36,283.17h0c19.88,0,36-16.12,36-36h0c0-23.67-5.51-47.02-16.1-68.2l-16.32-32.65c-1.47-2.95-5.68-2.95-7.16,0l-16.32,32.65C5.51,200.15,0,223.5,0,247.17H0C0,267.06,16.12,283.17,36,283.17Z"/>
  <path class="cls-2" d="M126,283.17h0c19.88,0,36-16.12,36-36v-35.5c0-47.68-11.1-94.7-32.42-137.34h0c-1.47-2.95-5.68-2.95-7.16,0h0c-21.32,42.64-32.42,89.67-32.42,137.34v35.5c0,19.88,16.12,36,36,36Z"/>
  <path class="cls-2" d="M212.45,2.28l-.02,.04h0c-21.32,42.64-32.42,89.67-32.42,137.34v107.5c0,19.88,16.12,36,36,36h0c19.88,0,36-16.12,36-36v-107.5c0-47.68-11.1-94.7-32.42-137.34h0s0,0,0,0c-1.37-3.09-5.74-3.11-7.14-.04l-.02,.04"/>
  <rect class="cls-1" x="180.05" y="301.17" width="72" height="72" rx="36" ry="36"/>
  <path class="cls-1" d="M162.06,337.17h0c0-19.88-16.12-36-36-36h0c-38.8,0-77.06,9.03-111.76,26.38l-12.08,6.04c-2.95,1.47-2.95,5.68,0,7.16l12.08,6.04c34.7,17.35,72.96,26.38,111.76,26.38h0c19.88,0,36-16.12,36-36Z"/>
</svg>
