<?xml version="1.0" encoding="UTF-8"?>
<svg id="Layer_1" xmlns="http://www.w3.org/2000/svg" version="1.1" viewBox="0 0 78.2 76.7">
  <!-- Generator: Adobe Illustrator 29.3.1, SVG Export Plug-In . SVG Version: 2.1.0 Build 151)  -->
  <defs>
    <style>
      .st0 {
        font-family: AktivGrotesk-Light, 'Aktiv Grotesk';
        font-size: 11px;
        font-weight: 300;
      }

      .st0, .st1 {
        fill: #fff;
      }

      .st2 {
        fill: #204854;
      }

      .st3 {
        fill: #d97a4b;
      }
    </style>
  </defs>
  <circle class="st2" cx="39.1" cy="36.1" r="36.1"/>
  <rect class="st3" x="0" y="60.5" width="78.2" height="16.2" rx="7.5" ry="7.5"/>
  <text class="st0" transform="translate(17.1 72.1)"><tspan x="0" y="0">Referrals</tspan></text>
  <g id="exchange">
    <g id="Group_27">
      <g id="Group_25">
        <g id="Group_26">
          <path id="Vector_75" class="st1" d="M50,30.3c-3,0-5.4,2.4-5.4,5.4s2.4,5.4,5.4,5.4,5.4-2.4,5.4-5.4-2.4-5.4-5.4-5.4Z"/>
        </g>
      </g>
      <g id="Group_271" data-name="Group_27">
        <g id="Group_28">
          <path id="Vector_76" class="st1" d="M28.2,12.9c-3,0-5.4,2.5-5.4,5.5s2.4,5.4,5.4,5.4,5.4-2.4,5.4-5.4-2.4-5.5-5.4-5.5Z"/>
        </g>
      </g>
      <g id="Group_29">
        <g id="Group_30">
          <path id="Vector_77" class="st3" d="M55.3,22.2c-.2-.4-.6-.6-1-.6h-1.1c-.5-4.9-4.7-8.7-9.7-8.7h-4.4c-.6,0-1.1.5-1.1,1.1s.5,1.1,1.1,1.1c3.8,0,7,2.9,7.6,6.6h-1c-.4,0-.8.2-1,.6-.2.4-.1.8.1,1.1l4.3,5.4c.2.3.5.4.8.4s.6-.1.8-.4l4.3-5.4c.3-.3.3-.8.1-1.1Z"/>
        </g>
      </g>
      <g id="Group_31">
        <g id="Group_32">
          <path id="Vector_78" class="st3" d="M39.1,47.6c-3.8,0-7-2.9-7.6-6.6h1c.4,0,.8-.2,1-.6.2-.4.1-.8-.1-1.1l-4.3-5.4c-.4-.5-1.3-.5-1.7,0l-4.3,5.4c-.3.3-.3.8-.1,1.1.2.4.6.6,1,.6h1.1c.5,4.9,4.7,8.7,9.7,8.7h4.4c.6,0,1.1-.5,1.1-1.1s-.5-1.1-1.1-1.1Z"/>
        </g>
      </g>
      <g id="Group_33">
        <g id="Group_34">
          <path id="Vector_79" class="st1" d="M55.3,41.1c-1.4,1.3-3.2,2.2-5.3,2.2s-3.9-.8-5.3-2.2c-1.4,1.4-2.3,3.4-2.3,5.5v2.2c0,.6.5,1.1,1.1,1.1h13c.6,0,1.1-.5,1.1-1.1v-2.2c0-2.1-.9-4.1-2.3-5.5Z"/>
        </g>
      </g>
      <g id="Group_35">
        <g id="Group_36">
          <path id="Vector_80" class="st1" d="M33.5,23.8c-1.4,1.3-3.2,2.2-5.3,2.2s-3.9-.8-5.3-2.2c-1.4,1.4-2.3,3.3-2.3,5.4v2.2c0,.6.5,1.1,1.1,1.1h13c.6,0,1.1-.5,1.1-1.1v-2.2c0-2.1-.9-4-2.3-5.4Z"/>
        </g>
      </g>
    </g>
  </g>
</svg>